<?xml version="1.0" encoding="UTF-8"?>
<svg width="146.58mm" height="150.47mm" version="1.1" viewBox="0 0 146.58 150.47" xmlns="http://www.w3.org/2000/svg" xmlns:cc="http://creativecommons.org/ns#" xmlns:dc="http://purl.org/dc/elements/1.1/" xmlns:rdf="http://www.w3.org/1999/02/22-rdf-syntax-ns#">
<metadata>
<rdf:RDF>
<cc:Work rdf:about="">
<dc:format>image/svg+xml</dc:format>
<dc:type rdf:resource="http://purl.org/dc/dcmitype/StillImage"/>
<dc:title/>
</cc:Work>
</rdf:RDF>
</metadata>
<g transform="translate(-16.352 -38.098)" fill="#3b0a11" fill-rule="evenodd">
<rect x="50.787" y="133.4" width="112.15" height="8.0433" stroke-width=".098759"/>
<rect x="68.922" y="140.75" width="6.8874" height="47.816" stroke-width=".059673"/>
<rect x="132.98" y="139.15" width="6.8874" height="47.816" stroke-width=".059673"/>
<rect x="69.505" y="162.23" width="68.854" height="8.0433" stroke-width=".077383"/>
</g>
<path d="m9.0159 58.076c1.7468 0.57668 4.4427 1.6098 5.8115 2.783 1.5572 1.3348 1.3288 2.3855 3.7176 3.7123 1.437 0.79816 2.1934 1.4912 3.4396 2.3812 0.32095 0.22925 0.77944 0.25027 1.0583 0.52916 1.0227 1.0227 1.2638 3.0228 2.2632 4.0222 0.43955 0.43955 3.0869-0.22047 3.9688 0 0.8206 0.20515-0.13563 1.6419 0.21265 2.0203 0.05497 0.0597 0.16235 0 0.24352 0 0.08568 0.0596 0.19512 0.0947 0.25702 0.17867 0.43546 0.59094-6e-3 1.0463 0.26458 1.5875 0.33153 0.66305 1.2035 0.98035 1.5313 1.695 0.63568 1.3861-0.79839 7.2298-1.0143 8.7312-0.06928 0.48185-0.28729 2.587 0.26458 3.0009 0.22312 0.16733 0.59654 0.0674 0.79375 0.26458 0.55097 0.55096-0.44255 2.4631-0.26458 3.175 0.19484 0.77936 1.1091 1.2534 1.3269 2.1244 0.22472 0.89887 0 2.0906 0 3.031v10.622c0-0.69025 0.67851 1.0976 0.71798 1.1776 0.26344 0.53396-0.16665 1.4885 0 2.0532 0.14116 0.47833 1.2991 0.78154 1.5803 1.0612 0.43394 0.43161 0.39646 1.3225 0.79375 1.8365 0.82548 1.0679 1.9175 2.5109 3.1116 3.1079 1.2835 0.64174 1.0004 2.5587 2.4247 3.2708 0.11838 0.0592 0.92978-0.11985 1.0583 0 0.79069 0.73722 1.814 1.3247 2.8409 1.8382 0.87761 0.43878 1.5843-0.6267 2.1839 0.26382 0.52652 0.78199-0.64942 1.66 0.64615 2.4571 0.51928 0.31949 2.8507 0.34487 2.5173 1.3838-0.22182 0.69111-2.2051 2.1756-2.8861 2.3532-0.15645 0.0408-0.34029-0.072-0.48505 0-0.49737 0.24745-0.99149 0.7326-1.5339 1.0047-0.41523 0.2083-2.3758 1.2107-2.9251 1.5952-0.24819 0.17373-1.8384 1.6123-2.2956 1.7652-0.75172 0.25133-1.6713-0.2074-2.3812-0.26458-0.73976-0.0596-1.4895 0.0877-2.2265 0-0.08768-0.0104 0.06155-0.20159 0-0.26491-0.18967-0.19514-0.51144-0.18977-0.77592-0.25386-0.92124-0.22324-2.0154-0.19142-2.9273-0.5334-1.004-0.37649-1.7418-1.2729-2.6017-1.808-0.37545-0.23361-0.86895-0.23659-1.2347-0.48506-0.16801-0.11413-0.13298-0.39989-0.27776-0.54235-0.42973-0.42282-1.0976-0.5027-1.6217-0.80076-3.6801-2.0931-7.8355-3.7366-9.9195-7.7614-0.08676-0.16754-0.41066-0.80056-0.44991-0.95627-0.16166-0.64143-0.19909-10.251 0-10.638 0.31296-0.60924 0.90657-0.63643 1.0848-1.3494 0.15088-0.60354-0.40849-0.99807-0.52161-1.5761-0.10948-0.55941 0.09836-1.1486 0-1.7101-0.0371-0.21179-0.23863-0.37485-0.26458-0.5883-0.30891-2.5403 0-5.3536 0-7.9221 0-3.0343 0.45635-6.686-1.8885-9.0308-0.81072-0.81072-2.3388-1.1079-3.2747-1.5458-1.7964-0.84062-3.1616-2.3326-4.7735-3.4456-1.2023-0.83022-0.51128-1.3709-0.90014-2.1414-0.30664-0.60756-1.1505-1.1505-1.5777-1.5777-0.12802-0.12801-0.19808-0.67598-0.26129-0.87229-0.23807-0.73939-0.58301-0.84686-1.0605-1.3113-0.16878-0.16417 0.10834-0.7711 0-1.0004-0.47422-1.0038-0.74288-1.1446-1.5382-1.9399-0.34653-0.34653-0.5292-1.3229-1.0583-1.3229-0.32456 0 0.82313 0.2236 0.97152-0.0651 0.17362-0.33776 0-1.1636 0-1.5529" fill="none" stroke="#000" stroke-width=".26458px"/>
<path d="m41.198 97.27-4.5485-2.7435 2.0834 5.1264-3.1135-4.488-0.04363 5.5908-1.14-5.4562-2.1631 5.0887 1.0307-5.4809-3.9084 3.7062 3.0231-4.5581-4.9781 1.6832 4.4927-2.8472-5.1871-0.63088 5.1855-0.64394-4.4989-2.8359 4.9818 1.6707-3.0331-4.5504 3.9168 3.6965-1.0427-5.4786 2.1743 5.083 1.128-5.4589 0.05589 5.5908 3.1037-4.4956-2.0722 5.1318 4.5426-2.755-3.842 3.7854 5.1962-0.53793-4.9472 1.7846 4.9513 1.7721-5.1974-0.52487z" fill="#f00" stroke-width=".085416"/>
<path d="m16.318 107.3c1.1818 0.61593 2.3346-0.54416 3.4271-0.54416 0.12473 0 0.14358 0.23433 0.26458 0.26458 0.62674 0.15669 1.4979 0 2.1512 0 0.82586 0 1.5554-0.26458 2.3812-0.26458 0.01421 0 0.47306 0.48582 0.50262 0.50265 0.54592 0.31073 1.2513 0.0289 1.7522 0.26458 0.95268 0.44834-1.3405 0.0866 0.28106 0.42585 0.8504 0.17788 1.6108-0.26459 2.4163-0.26459 0.12473 0 0.15317 0.20853 0.26458 0.26459 0.23208 0.11676 0.82377-0.16437 1.0174 0 0.05069 0.043-0.06514 0.21271 0 0.19943 0.11569-0.0236 0.13237-0.24984 0.25044-0.25047 0.08305-5.3e-4 -0.05465 0.18661 0 0.24915 0.01003 0.0115 0.47409-0.0833 0.21769 0.20278-0.04044 0.0451-0.24236 0-0.18177 0 0.99269 0 1.686-0.51581 1.8926-0.51581 0.07906 0-0.15993-0.0168-0.2372 0-0.32358 0.0703-0.62802 0.27532-0.95879 0.25987-0.10149-5e-3 -0.05278-0.21628-0.0029-0.3048 0.84925-1.5072 1.7861-2.9632 2.6792-4.4449" fill="none" stroke="#000" stroke-width=".26458px"/>
<path d="m19.136 34.392c1.3079-0.39316 2.1278-1.0682 3.2868-1.6425 0.15234-0.07549 0.36688 0.09169 0.51004 0 0.69982-0.44821 1.5802-1.9073 2.0631-2.4998 0.58965-0.72349 1.4852-1.2604 2.0733-1.8087 0.25993-0.24233-0.19146-1.2235 0-1.5413 0.39828-0.66111 0.3223-0.59748 0.78348-0.59748 0.08167 0-0.24501-0.08167-0.24501 0s0.24501 0.08167 0.24501 0c0-0.11599-0.24501-0.13109-0.24501-0.24708 0-0.11378 0.02705-0.8236 0-0.85683-0.74488-0.91521-1.5002-0.3294-2.434-0.52917-1.1401-0.2439-1.9542-1.1953-2.9839-1.6366-0.33423-0.14324-0.71785-0.1369-1.0583-0.26458-0.55396-0.20774-0.99795-0.74426-1.5875-0.79375-0.87113-0.07313-1.7681 0.18467-2.6226 0-1.5122-0.32683-1.0427-2.0786-2.3904-2.655-0.85043-0.36372-1.9019-0.5555-2.687-1.0789-0.31133-0.20756-0.48927-0.57626-0.79375-0.79375-0.77802-0.55573-1.7819-0.68934-2.5714-1.1642-0.21561-0.1297-0.30369-0.43187-0.53375-0.53375-1.3105-0.58036-2.8032-0.32676-3.8186-1.3421-1.0586-1.0586 0.47199-2.8678 1.3275-3.4375 0.97681-0.65055 2.2203-0.91791 3.1814-1.5907 1.1707-0.49129 1.7125-1.7099 2.6856-2.421 0.5763-0.42116 1.265-0.66698 1.8589-1.0629 0.84436-0.56291 1.7676-1.6806 2.6821-2.1379 0.99157-0.49579 2.6405-0.53513 3.7511-0.78907 0.33603-0.07683 1.7405-0.52802 2.033-0.52802 0.12742 0 0.18392 0.17639 0.27589 0.26458 0.17639 0 0.35367 0.01778 0.52917 0 4.8257-0.48865 9.5892-1.7031 14.45-1.9408 1.7333-0.08475 3.4744-0.15741 5.2059-0.04176 0.56896 0.038 1.1158 0.29151 1.6861 0.28923 1.5671-0.0063 3.1295-0.17922 4.6914-0.30654 1.3041-0.1063 2.5895-0.39988 3.8951-0.48508 2.9856-0.19484 5.9838 0 8.9757 0 0.8976 0 1.8124-0.17498 2.6928 0 1.733 0.34445 3.4416 0.86012 5.0711 1.5432 0.66391 0.27828 1.2863 2.3698 2.9245 2.9287 0.98972 0.33764 6.0536 1.2082 6.526 2.3318 0.92649 2.2033-1.9005 1.5669 0.01447 3.7684 0.28941 0.33272 0.76114 0.46797 1.0583 0.79375 0.47561 0.52135 0.82002 1.1488 1.2347 1.7198 0.48198 0.66372 1.456 1.1641 1.4552 1.9844-0.0016 1.5501-1.9386 3.9908-2.6088 5.478-0.30805 0.68354-0.6786 1.381-0.72444 2.1294-0.12342 2.0149 4.1092 3.1713 2.2221 4.8163-1.0671 0.93013-4.6047 2.116-5.201 2.3609-3.6039 1.4799-7.2732 2.7984-10.864 4.3089-2.7544 1.1586-5.4884 2.9944-8.3561 3.8601-0.84827 0.25607-1.7587 0.24232-2.6194 0.4527-0.88413 0.2161-1.7554 0.92382-2.6384 0.70307-0.73453-0.18363-0.48988-0.82312-1.0583-1.0583-1.7197-0.71158-3.3086-1.771-5.0563-2.4701-0.75032-0.30014-1.5815-0.34841-2.3474-0.60607-0.01574-0.0053-2.1511-1.078-2.1968-1.0984-1.4135-0.6292-2.9576-0.92278-4.3423-1.613-1.3172-0.65653 0.33938-2.6512-2.1893-3.2561-0.14454-0.03458-1.2004 0.18912-1.2788 0.26458-0.11216 0.10803 0.04527 0.31817 0 0.46717-0.05431 0.17872-1.1331 0.90023-1.2599 0.99536-0.45565 0.34174-1.1366 0.57095-1.5875 0.79375-0.59628 0.29462-1.2627 0.97359-1.8521 1.326-0.59319 0.35468-0.6591 0.04146-1.1581 0.26458-0.84872 0.37946-1.0516 0.52691-1.8639 0.80118-0.40153 0.13557-1.2486 0.77791-1.5583 0.78179-0.08708 0.0011 0.07656-0.21976 0-0.26127-0.14116-0.07656-0.33785 0.07127-0.48176 0-0.19964-0.09887-0.27331-0.37298-0.47258-0.47261-0.45591-0.22796-1.6078 0.22657-1.6898 0.22749-0.08225 7.94e-4 0.0451-0.17797 0-0.24676-0.16123-0.24593-0.40008-0.43329-0.62554-0.62209-0.40634-0.34027-0.9362 1.0548-1.3874 0.7767-1.0948-0.67481 0.67791-2.2571-1.4724-1.3005" fill="none" stroke="#000" stroke-width=".26458px"/>
<text transform="scale(.84504 1.1834)" x="23.972393" y="18.140434" font-family="sans-serif" font-size="16.329px" letter-spacing="0px" stroke-width=".40823" style="line-height:1.25" xml:space="preserve"><tspan x="23.972393" y="18.140434" stroke-width=".40823">SHINIT!!</tspan></text>
</svg>
